<svg xmlns="http://www.w3.org/2000/svg" width="429" height="95" fill="none" viewBox="0 0 429 95"><path fill="#fff" d="M17.7624 16.12H29.1404L45.3225 61H35.3351L32.0481 51.4551H14.7914L11.5044 61H1.58028L17.7624 16.12ZM29.3932 43.5537L23.4514 26.2338L17.5095 43.5537H29.3932ZM51.5305 16.12H62.15L79.9756 47.0935V16.12H89.5837V61H78.8378L61.1386 31.1011V61H51.5305V16.12ZM97.5192 16.12H113.006C120.254 16.12 125.838 18.0796 129.757 21.9987C133.718 25.8756 135.699 31.4171 135.699 38.6232C135.699 45.7872 133.76 51.3076 129.883 55.1846C126.049 59.0615 120.549 61 113.385 61H97.5192V16.12ZM113.006 52.909C117.304 52.909 120.507 51.7501 122.614 49.4323C124.721 47.0725 125.775 43.4483 125.775 38.56C125.775 33.7138 124.721 30.1108 122.614 27.7509C120.507 25.391 117.304 24.2111 113.006 24.2111H107.127V52.909H113.006ZM141.532 16.12H161.191C164.436 16.12 167.281 16.6678 169.725 17.7635C172.169 18.8592 174.044 20.4184 175.35 22.4411C176.657 24.4639 177.31 26.8238 177.31 29.5208C177.31 31.5436 176.889 33.3767 176.046 35.0202C175.203 36.6215 174.023 37.9279 172.506 38.9393C170.989 39.9507 169.261 40.5828 167.323 40.8356L167.133 40.2667C170.125 40.2667 172.401 40.9199 173.96 42.2263C175.519 43.4905 176.404 45.45 176.615 48.1049L177.753 61H167.955L167.133 49.622C167.007 47.8521 166.459 46.5668 165.49 45.7661C164.52 44.9654 162.919 44.5651 160.685 44.5651H151.141V61H141.532V16.12ZM160.117 36.5372C162.434 36.5372 164.225 36.0105 165.49 34.957C166.796 33.8613 167.449 32.3232 167.449 30.3425C167.449 28.3198 166.796 26.8027 165.49 25.7913C164.183 24.7378 162.287 24.2111 159.801 24.2111H151.141V36.5372H160.117ZM185.607 16.12H216.834V24.2111H195.216V34.5145H216.075V42.4791H195.216V52.909H217.34V61H185.607V16.12ZM238.014 16.12H249.392L265.574 61H255.587L252.3 51.4551H235.043L231.756 61H221.832L238.014 16.12ZM249.645 43.5537L243.703 26.2338L237.761 43.5537H249.645ZM286.64 62.0114C282.848 62.0114 279.54 61.3582 276.716 60.0518C273.935 58.7455 271.765 56.9123 270.205 54.5525C268.646 52.1926 267.761 49.4113 267.55 46.2086L277.222 45.7661C277.433 47.536 277.938 49.0531 278.739 50.3173C279.54 51.5394 280.593 52.4665 281.899 53.0986C283.248 53.7307 284.87 54.0468 286.767 54.0468C289.211 54.0468 291.065 53.6043 292.329 52.7193C293.636 51.8344 294.289 50.5491 294.289 48.8634C294.289 47.7678 294.036 46.8407 293.53 46.0821C293.025 45.2815 292.034 44.5651 290.559 43.933C289.127 43.3008 287.041 42.6687 284.301 42.0366C280.34 41.1517 277.222 40.1614 274.946 39.0657C272.713 37.97 271.048 36.6005 269.953 34.957C268.899 33.3135 268.372 31.2064 268.372 28.6358C268.372 25.981 269.046 23.6421 270.395 21.6194C271.744 19.5545 273.682 17.9531 276.21 16.8153C278.739 15.6775 281.731 15.1086 285.186 15.1086C288.811 15.1086 291.908 15.7618 294.478 17.0682C297.091 18.3324 299.135 20.1023 300.61 22.3779C302.085 24.6535 302.991 27.2873 303.328 30.2793L293.72 30.785C293.551 29.2258 293.109 27.8773 292.393 26.7395C291.676 25.5596 290.686 24.6535 289.422 24.0214C288.2 23.3893 286.746 23.0732 285.06 23.0732C282.911 23.0732 281.204 23.5579 279.94 24.5271C278.718 25.4963 278.107 26.7606 278.107 28.3198C278.107 29.4576 278.381 30.3847 278.929 31.1011C279.476 31.8175 280.403 32.4496 281.71 32.9974C283.016 33.5452 284.934 34.072 287.462 34.5777C291.55 35.4205 294.795 36.474 297.197 37.7383C299.641 39.0025 301.39 40.5196 302.443 42.2895C303.497 44.0172 304.023 46.0611 304.023 48.421C304.023 51.2023 303.307 53.6254 301.874 55.6903C300.484 57.713 298.482 59.2722 295.869 60.3679C293.256 61.4635 290.18 62.0114 286.64 62.0114ZM326.29 16.12H336.909L354.735 47.0935V16.12H364.343V61H353.597L335.898 31.1011V61H326.29V16.12ZM373.698 16.12H383.306V35.7155L399.615 16.12H410.803L394.305 35.9051L411.814 61H400.879L387.984 42.3527L383.306 47.7888V61H373.698V16.12ZM416.054 51.3287H426.295V61H416.054V51.3287Z"/><rect width="425.766" height="8.623" y="86" fill="url(#paint0_linear_42_15)"/><defs><linearGradient id="paint0_linear_42_15" x1="0" x2="425.766" y1="90.312" y2="90.312" gradientUnits="userSpaceOnUse"><stop stop-color="#FBF332"/><stop offset=".195" stop-color="#F33"/><stop offset=".43" stop-color="#3239FB"/><stop offset=".635" stop-color="#3239FB"/><stop offset=".84" stop-color="#F33"/><stop offset="1" stop-color="#FBF332"/></linearGradient></defs></svg>